<?xml version="1.0" encoding="UTF-8"?>
<svg xmlns="http://www.w3.org/2000/svg" xmlns:xlink="http://www.w3.org/1999/xlink" width="399pt" height="400pt" viewBox="0 0 399 400" version="1.1">
<g id="surface1">
<path style=" stroke:none;fill-rule:nonzero;fill:rgb(94.901961%,94.901961%,94.901961%);fill-opacity:1;" d="M 38.363281 337 L 34.847656 323.144531 C 28.621094 320.507812 22.246094 318.21875 15.757812 316.296875 L 15.316406 322.738281 L 13.519531 315.644531 C 5.472656 313.34375 0 312.332031 0 312.332031 C 0 312.332031 7.390625 340.4375 22.898438 361.925781 L 40.964844 365.101562 L 26.929688 367.125 C 28.878906 369.46875 30.976562 371.691406 33.207031 373.773438 C 55.761719 394.707031 80.882812 404.3125 89.320312 395.226562 C 97.753906 386.140625 86.304688 361.804688 63.75 340.875 C 56.757812 334.386719 47.972656 329.179688 39.179688 325.078125 Z M 38.363281 337 "/>
<path style=" stroke:none;fill-rule:nonzero;fill:rgb(94.901961%,94.901961%,94.901961%);fill-opacity:1;" d="M 71.773438 321.953125 L 75.929688 308.277344 C 71.960938 302.796875 67.6875 297.546875 63.128906 292.550781 L 59.421875 297.832031 L 61.546875 290.828125 C 55.847656 284.707031 51.6875 281.011719 51.6875 281.011719 C 51.6875 281.011719 43.484375 308.894531 45.648438 335.300781 L 59.472656 347.355469 L 46.410156 341.832031 C 46.867188 344.851562 47.515625 347.835938 48.347656 350.773438 C 56.832031 380.347656 73.375 401.554688 85.292969 398.136719 C 97.210938 394.714844 99.992188 367.96875 91.503906 338.390625 C 88.875 329.222656 84.046875 320.226562 78.636719 312.171875 Z M 71.773438 321.953125 "/>
<path style=" stroke:none;fill-rule:nonzero;fill:rgb(90.196078%,90.196078%,90.196078%);fill-opacity:1;" d="M 278.363281 94.769531 L 276.171875 94.769531 L 276.171875 34.742188 C 276.171875 15.554688 260.613281 0 241.421875 0 L 114.21875 0 C 95.027344 0 79.472656 15.554688 79.472656 34.742188 L 79.472656 364.058594 C 79.472656 383.25 95.027344 398.804688 114.21875 398.804688 L 241.421875 398.804688 C 260.613281 398.804688 276.171875 383.25 276.171875 364.058594 L 276.171875 137.5 L 278.363281 137.5 Z M 278.363281 94.769531 "/>
<path style=" stroke:none;fill-rule:nonzero;fill:rgb(100%,100%,100%);fill-opacity:1;" d="M 242.824219 9.035156 L 226.222656 9.035156 C 227.773438 12.835938 227.328125 17.160156 225.039062 20.566406 C 222.746094 23.972656 218.910156 26.019531 214.804688 26.019531 L 141.933594 26.019531 C 137.828125 26.015625 133.992188 23.972656 131.699219 20.566406 C 129.410156 17.160156 128.96875 12.835938 130.519531 9.035156 L 115.011719 9.035156 C 100.679688 9.035156 89.058594 20.652344 89.058594 34.980469 L 89.058594 363.820312 C 89.058594 378.148438 100.679688 389.765625 115.011719 389.765625 L 242.824219 389.765625 C 257.15625 389.765625 268.773438 378.148438 268.773438 363.820312 L 268.773438 34.980469 C 268.773438 20.652344 257.15625 9.035156 242.824219 9.035156 Z M 242.824219 9.035156 "/>
<path style=" stroke:none;fill-rule:nonzero;fill:rgb(80%,80%,80%);fill-opacity:1;" d="M 162.628906 140.027344 C 162.628906 135.351562 165.125 131.027344 169.179688 128.691406 C 163.675781 125.511719 156.6875 126.742188 152.601562 131.613281 C 148.515625 136.480469 148.515625 143.578125 152.601562 148.445312 C 156.6875 153.3125 163.675781 154.542969 169.179688 151.363281 C 165.128906 149.027344 162.628906 144.707031 162.628906 140.027344 Z M 162.628906 140.027344 "/>
<path style=" stroke:none;fill-rule:nonzero;fill:rgb(80%,80%,80%);fill-opacity:1;" d="M 179.09375 140.027344 C 179.089844 135.351562 181.589844 131.027344 185.640625 128.691406 C 180.140625 125.511719 173.148438 126.742188 169.0625 131.613281 C 164.976562 136.480469 164.976562 143.578125 169.0625 148.445312 C 173.148438 153.3125 180.140625 154.542969 185.640625 151.363281 C 181.589844 149.027344 179.089844 144.707031 179.09375 140.027344 Z M 179.09375 140.027344 "/>
<path style=" stroke:none;fill-rule:nonzero;fill:rgb(42.352941%,38.823529%,100%);fill-opacity:1;" d="M 208.273438 140.027344 C 208.273438 147.257812 202.410156 153.121094 195.179688 153.121094 C 187.949219 153.121094 182.085938 147.257812 182.085938 140.027344 C 182.085938 132.796875 187.949219 126.933594 195.179688 126.933594 C 202.410156 126.933594 208.273438 132.796875 208.273438 140.027344 Z M 208.273438 140.027344 "/>
<path style=" stroke:none;fill-rule:nonzero;fill:rgb(80%,80%,80%);fill-opacity:1;" d="M 217.066406 180.921875 L 140.746094 180.921875 C 139.234375 180.917969 138.007812 179.691406 138.003906 178.179688 L 138.003906 101.875 C 138.007812 100.363281 139.234375 99.136719 140.746094 99.136719 L 217.066406 99.136719 C 218.578125 99.136719 219.804688 100.363281 219.804688 101.875 L 219.804688 178.179688 C 219.804688 179.691406 218.578125 180.917969 217.066406 180.921875 Z M 140.746094 100.230469 C 139.839844 100.234375 139.101562 100.96875 139.101562 101.875 L 139.101562 178.179688 C 139.101562 179.089844 139.839844 179.824219 140.746094 179.824219 L 217.066406 179.824219 C 217.972656 179.824219 218.707031 179.089844 218.707031 178.179688 L 218.707031 101.875 C 218.707031 100.96875 217.972656 100.234375 217.066406 100.230469 Z M 140.746094 100.230469 "/>
<path style=" stroke:none;fill-rule:nonzero;fill:rgb(80%,80%,80%);fill-opacity:1;" d="M 117.054688 239.410156 L 234.105469 239.410156 L 234.105469 240.507812 L 117.054688 240.507812 Z M 117.054688 239.410156 "/>
<path style=" stroke:none;fill-rule:nonzero;fill:rgb(42.352941%,38.823529%,100%);fill-opacity:1;" d="M 124.449219 228.871094 C 124.449219 230.914062 122.792969 232.570312 120.75 232.570312 C 118.710938 232.570312 117.054688 230.914062 117.054688 228.871094 C 117.054688 226.832031 118.710938 225.175781 120.75 225.175781 C 122.792969 225.175781 124.449219 226.832031 124.449219 228.871094 Z M 124.449219 228.871094 "/>
<path style=" stroke:none;fill-rule:nonzero;fill:rgb(80%,80%,80%);fill-opacity:1;" d="M 117.054688 276.367188 L 234.105469 276.367188 L 234.105469 277.464844 L 117.054688 277.464844 Z M 117.054688 276.367188 "/>
<path style=" stroke:none;fill-rule:nonzero;fill:rgb(42.352941%,38.823529%,100%);fill-opacity:1;" d="M 124.449219 265.828125 C 124.449219 267.871094 122.792969 269.527344 120.75 269.527344 C 118.710938 269.527344 117.054688 267.871094 117.054688 265.828125 C 117.054688 263.789062 118.710938 262.132812 120.75 262.132812 C 122.792969 262.132812 124.449219 263.789062 124.449219 265.828125 Z M 124.449219 265.828125 "/>
<path style=" stroke:none;fill-rule:nonzero;fill:rgb(42.352941%,38.823529%,100%);fill-opacity:1;" d="M 231.964844 318.453125 L 194.972656 318.453125 C 193.640625 318.453125 192.5625 317.375 192.5625 316.042969 L 192.5625 303.082031 C 192.5625 301.75 193.640625 300.671875 194.972656 300.671875 L 231.964844 300.671875 C 233.292969 300.671875 234.371094 301.75 234.375 303.082031 L 234.375 316.042969 C 234.371094 317.375 233.292969 318.453125 231.964844 318.453125 Z M 231.964844 318.453125 "/>
<path style=" stroke:none;fill-rule:nonzero;fill:rgb(42.352941%,38.823529%,100%);fill-opacity:1;" d="M 136.507812 228.871094 C 136.507812 230.914062 134.851562 232.570312 132.808594 232.570312 C 130.769531 232.570312 129.113281 230.914062 129.113281 228.871094 C 129.113281 226.832031 130.769531 225.175781 132.808594 225.175781 C 134.851562 225.175781 136.507812 226.832031 136.507812 228.871094 Z M 136.507812 228.871094 "/>
<path style=" stroke:none;fill-rule:nonzero;fill:rgb(42.352941%,38.823529%,100%);fill-opacity:1;" d="M 148.5625 228.871094 C 148.5625 230.914062 146.910156 232.570312 144.867188 232.570312 C 142.824219 232.570312 141.171875 230.914062 141.171875 228.871094 C 141.171875 226.832031 142.824219 225.175781 144.867188 225.175781 C 146.910156 225.175781 148.5625 226.832031 148.5625 228.871094 Z M 148.5625 228.871094 "/>
<path style=" stroke:none;fill-rule:nonzero;fill:rgb(42.352941%,38.823529%,100%);fill-opacity:1;" d="M 136.507812 265.828125 C 136.507812 267.871094 134.851562 269.527344 132.808594 269.527344 C 130.769531 269.527344 129.113281 267.871094 129.113281 265.828125 C 129.113281 263.789062 130.769531 262.132812 132.808594 262.132812 C 134.851562 262.132812 136.507812 263.789062 136.507812 265.828125 Z M 136.507812 265.828125 "/>
<path style=" stroke:none;fill-rule:nonzero;fill:rgb(42.352941%,38.823529%,100%);fill-opacity:1;" d="M 148.5625 265.828125 C 148.5625 267.871094 146.910156 269.527344 144.867188 269.527344 C 142.824219 269.527344 141.171875 267.871094 141.171875 265.828125 C 141.171875 263.789062 142.824219 262.132812 144.867188 262.132812 C 146.910156 262.132812 148.5625 263.789062 148.5625 265.828125 Z M 148.5625 265.828125 "/>
<path style=" stroke:none;fill-rule:nonzero;fill:rgb(24.705882%,23.921569%,33.72549%);fill-opacity:1;" d="M 397.429688 400.042969 L 12.898438 400.042969 C 12.074219 400.042969 11.40625 399.75 11.40625 399.390625 C 11.40625 399.027344 12.074219 398.734375 12.898438 398.734375 L 397.429688 398.734375 C 398.25 398.734375 398.917969 399.027344 398.917969 399.390625 C 398.917969 399.75 398.25 400.042969 397.429688 400.042969 Z M 397.429688 400.042969 "/>
<path style=" stroke:none;fill-rule:nonzero;fill:rgb(100%,72.156863%,72.156863%);fill-opacity:1;" d="M 302.425781 262.09375 C 302.6875 262.214844 302.941406 262.355469 303.179688 262.515625 L 327.203125 252.265625 L 328.058594 245.9375 L 337.65625 245.878906 L 337.089844 260.390625 L 305.382812 268.773438 C 305.316406 268.992188 305.238281 269.210938 305.144531 269.421875 C 303.863281 272.152344 300.621094 273.335938 297.882812 272.070312 C 295.144531 270.804688 293.941406 267.570312 295.191406 264.824219 C 296.441406 262.082031 299.671875 260.859375 302.425781 262.09375 Z M 302.425781 262.09375 "/>
<path style=" stroke:none;fill-rule:nonzero;fill:rgb(100%,72.156863%,72.156863%);fill-opacity:1;" d="M 341.148438 393.585938 L 334.582031 393.585938 L 331.457031 368.265625 L 341.148438 368.265625 Z M 341.148438 393.585938 "/>
<path style=" stroke:none;fill-rule:nonzero;fill:rgb(18.431373%,18.039216%,25.490196%);fill-opacity:1;" d="M 329.890625 391.710938 L 342.554688 391.710938 L 342.554688 399.679688 L 321.917969 399.679688 C 321.917969 395.277344 325.488281 391.710938 329.890625 391.710938 Z M 329.890625 391.710938 "/>
<path style=" stroke:none;fill-rule:nonzero;fill:rgb(100%,72.156863%,72.156863%);fill-opacity:1;" d="M 366.683594 391.730469 L 360.148438 392.375 L 354.558594 367.480469 L 364.203125 366.53125 Z M 366.683594 391.730469 "/>
<path style=" stroke:none;fill-rule:nonzero;fill:rgb(18.431373%,18.039216%,25.490196%);fill-opacity:1;" d="M 355.296875 390.96875 L 367.898438 389.726562 L 368.679688 397.660156 L 348.144531 399.683594 C 347.714844 395.300781 350.914062 391.398438 355.296875 390.96875 Z M 355.296875 390.96875 "/>
<path style=" stroke:none;fill-rule:nonzero;fill:rgb(100%,72.156863%,72.156863%);fill-opacity:1;" d="M 356.128906 205.929688 C 356.128906 213.191406 350.238281 219.082031 342.976562 219.082031 C 335.710938 219.082031 329.820312 213.191406 329.820312 205.929688 C 329.820312 198.667969 335.710938 192.777344 342.976562 192.777344 C 350.238281 192.777344 356.128906 198.667969 356.128906 205.929688 Z M 356.128906 205.929688 "/>
<path style=" stroke:none;fill-rule:nonzero;fill:rgb(18.431373%,18.039216%,25.490196%);fill-opacity:1;" d="M 333.113281 388.464844 C 331.949219 388.46875 330.953125 387.632812 330.75 386.484375 C 327.351562 367.621094 316.242188 305.945312 315.976562 304.238281 C 315.972656 304.199219 315.96875 304.160156 315.96875 304.121094 L 315.96875 299.519531 C 315.96875 299.351562 316.019531 299.191406 316.117188 299.054688 L 317.585938 297 C 317.726562 296.796875 317.953125 296.675781 318.199219 296.664062 C 326.566406 296.273438 353.964844 295.121094 355.289062 296.777344 C 356.617188 298.4375 356.148438 303.472656 356.042969 304.464844 L 356.046875 304.570312 L 368.355469 383.28125 C 368.558594 384.585938 367.671875 385.8125 366.367188 386.03125 L 358.679688 387.296875 C 357.496094 387.488281 356.351562 386.785156 355.988281 385.640625 C 353.609375 378.042969 345.636719 352.484375 342.871094 342.597656 C 342.835938 342.46875 342.710938 342.382812 342.574219 342.402344 C 342.441406 342.421875 342.34375 342.535156 342.347656 342.671875 C 342.484375 352.097656 342.816406 376.152344 342.933594 384.457031 L 342.945312 385.351562 C 342.957031 386.609375 342.003906 387.664062 340.753906 387.78125 L 333.339844 388.453125 C 333.265625 388.460938 333.1875 388.464844 333.113281 388.464844 Z M 333.113281 388.464844 "/>
<path style=" stroke:none;fill-rule:nonzero;fill:rgb(42.352941%,38.823529%,100%);fill-opacity:1;" d="M 334.628906 224.253906 C 332.332031 225.617188 330.957031 228.125 330.167969 230.675781 C 328.710938 235.398438 327.832031 240.285156 327.554688 245.21875 L 326.71875 260 L 316.40625 299.179688 C 325.347656 306.742188 330.5 305.023438 342.535156 298.835938 C 354.566406 292.652344 355.941406 300.898438 355.941406 300.898438 L 358.347656 267.5625 L 361.785156 231.132812 C 361.011719 230.203125 360.136719 229.363281 359.179688 228.628906 C 352.742188 223.625 344.363281 221.847656 336.449219 223.8125 Z M 334.628906 224.253906 "/>
<path style=" stroke:none;fill-rule:nonzero;fill:rgb(100%,72.156863%,72.156863%);fill-opacity:1;" d="M 331.277344 270.007812 C 331.554688 270.113281 331.824219 270.238281 332.082031 270.382812 L 355.832031 258.5 L 356.226562 252.058594 L 366.023438 251.382812 L 366.550781 266.0625 L 334.808594 276.558594 C 334.277344 278.832031 332.394531 280.542969 330.078125 280.851562 C 327.761719 281.160156 325.496094 280.003906 324.386719 277.949219 C 323.277344 275.890625 323.558594 273.363281 325.089844 271.597656 C 326.621094 269.832031 329.085938 269.199219 331.277344 270.007812 Z M 331.277344 270.007812 "/>
<path style=" stroke:none;fill-rule:nonzero;fill:rgb(42.352941%,38.823529%,100%);fill-opacity:1;" d="M 361.613281 231.296875 C 367.457031 233.359375 368.484375 255.703125 368.484375 255.703125 C 361.609375 251.921875 353.359375 258.109375 353.359375 258.109375 C 353.359375 258.109375 351.640625 252.265625 349.578125 244.703125 C 348.3125 240.382812 349.351562 235.710938 352.328125 232.332031 C 352.328125 232.332031 355.769531 229.234375 361.613281 231.296875 Z M 361.613281 231.296875 "/>
<path style=" stroke:none;fill-rule:nonzero;fill:rgb(18.431373%,18.039216%,25.490196%);fill-opacity:1;" d="M 354.769531 209.40625 C 353.132812 208.097656 350.894531 210.480469 350.894531 210.480469 L 349.582031 198.679688 C 349.582031 198.679688 341.390625 199.664062 336.144531 198.355469 C 330.898438 197.042969 330.082031 203.105469 330.082031 203.105469 C 329.808594 200.65625 329.753906 198.191406 329.917969 195.730469 C 330.246094 192.78125 334.503906 189.832031 342.042969 187.867188 C 349.582031 185.898438 353.515625 194.421875 353.515625 194.421875 C 358.761719 197.042969 356.410156 210.71875 354.769531 209.40625 Z M 354.769531 209.40625 "/>
</g>
</svg>
